<?xml version="1.0" encoding="utf-8"?>
<!-- Generator: Adobe Illustrator 17.1.0, SVG Export Plug-In . SVG Version: 6.00 Build 0)  -->
<!DOCTYPE svg PUBLIC "-//W3C//DTD SVG 1.1//EN" "http://www.w3.org/Graphics/SVG/1.1/DTD/svg11.dtd">
<svg version="1.1" xmlns="http://www.w3.org/2000/svg" xmlns:xlink="http://www.w3.org/1999/xlink" x="0px" y="0px"
	 viewBox="0 0 350 350" enable-background="new 0 0 350 350" xml:space="preserve">
<g id="レイヤー_1">
	<path fill="#DA4B3B" d="M177,0.3"/>
	<g>
		<path fill="#EDC0CD" d="M175,350c96.4,0,175-78.6,175-175S271.4,0,175,0S0,78.6,0,175S78.6,350,175,350z"/>
	</g>
</g>
<g id="レイヤー_2">
	<g>
		
			<path fill="#DEDFDF" stroke="#DEDFDF" stroke-width="7" stroke-linecap="round" stroke-linejoin="round" stroke-miterlimit="10" d="
			M160.9,135.3c0-2.9,2.1-4.3,5-4.3s4.9,1.4,4.9,4.3v71.5c0,4.1-2.1,6.6-6.2,6.6c-4.5,0-6.1-1.8-8.7-5.9l-27.6-44.6
			c-4.2-6.7-9.4-16.8-11.8-22c0.6,6.7,1.5,21.1,1.5,36.4v31.9c0,2.8-2.1,4.3-4.9,4.3c-2.9,0-5-1.5-5-4.3v-71.8
			c0-3.8,2.5-6.2,6.6-6.2c4.7,0,6.4,1.9,8.4,5l26.2,42.5c4.8,7.8,10.6,18.9,13.3,24.8c-0.6-6.4-1.7-21.5-1.7-36.5V135.3z"/>
		
			<path fill="#DEDFDF" stroke="#DEDFDF" stroke-width="7" stroke-linecap="round" stroke-linejoin="round" stroke-miterlimit="10" d="
			M258.1,172.3c0,25.6-13.9,42.1-36.2,42.1s-36.4-16.4-36.4-42.2c0-25.5,14-42,36.4-42C244.2,130.1,258.1,146.6,258.1,172.3z
			 M195.8,172.3c0,20.1,10.2,33.1,26.1,33.1c16.2,0,25.9-12.8,25.9-33.7c0-19.7-10.1-32.6-25.9-32.6
			C205.8,139.1,195.8,152.2,195.8,172.3z"/>
	</g>
</g>
</svg>
