<?xml version="1.0" encoding="utf-8"?>
<!-- Generator: Adobe Illustrator 17.1.0, SVG Export Plug-In . SVG Version: 6.00 Build 0)  -->
<!DOCTYPE svg PUBLIC "-//W3C//DTD SVG 1.1//EN" "http://www.w3.org/Graphics/SVG/1.1/DTD/svg11.dtd">
<svg version="1.1" id="レイヤー_1" xmlns="http://www.w3.org/2000/svg" xmlns:xlink="http://www.w3.org/1999/xlink" x="0px"
	 y="0px" viewBox="0 0 350 350" enable-background="new 0 0 350 350" xml:space="preserve">
<path fill="#DA4B3B" d="M177,0.3"/>
<g>
	<path fill="#00A2C7" d="M175,350c96.4,0,175-78.6,175-175S271.4,0,175,0S0,78.6,0,175S78.6,350,175,350z"/>
</g>
<g enable-background="new    ">
	<path fill="#FFFFFF" d="M127.1,133.2c0.9-1.6,2.3-2.2,3.7-2.2c0.9,0,1.9,0.3,2.8,0.8c1.6,0.8,2.8,2.4,2.8,4.2
		c0,0.7-0.2,1.6-0.7,2.3l-27.5,41.2v29.6c0,2.8-2.1,4.3-4.9,4.3c-3,0-5-1.5-5-4.3v-29.6l-27.7-41.4c-0.4-0.7-0.6-1.4-0.6-2.1
		c0-1.8,1.4-3.3,3-4.3c0.9-0.4,1.9-0.7,2.8-0.7c1.4,0,2.7,0.6,3.7,2.2l23.7,37L127.1,133.2z"/>
	<path fill="#FFFFFF" d="M158.9,200.4c0,2.4,1.6,3.3,3.8,3.3h37.2c2.7,0,4.2,1.9,4.2,4.5c0,2.5-1.5,4.6-4.2,4.6h-40.2
		c-7.4,0-10.6-3.2-10.6-11.1v-58.7c0-8,3.2-11.2,10.6-11.2H199c2.7,0,4.2,1.9,4.2,4.5c0,2.6-1.5,4.6-4.2,4.6h-36.6
		c-2.5,0-3.5,1.1-3.5,3.6v21.5h35.5c2.6,0,4.1,1.9,4.1,4.5c0,2.4-1.6,4.4-4.1,4.4h-35.5V200.4z"/>
	<path fill="#FFFFFF" d="M247.1,166.9c16.2,3.4,25.1,8.9,25.1,24c0,13.4-10.3,23.5-28.9,23.5c-23.7,0-28.6-12.3-31.1-20.7
		c-0.1-0.5-0.2-0.9-0.2-1.4c0-2.3,1.8-3.8,4-4.4c0.6-0.1,1.1-0.2,1.8-0.2c2,0,4,0.9,4.6,3.1c1.9,7,5.3,14.8,20.5,14.8
		c11.9,0,19.2-5.7,19.2-14.7c0-8.5-4.7-12.3-17-14.8l-8.3-1.8c-15.6-3.2-22.7-9.2-22.7-22.8c0-10.9,8.1-21.5,27.7-21.5
		c18.7,0,25.2,10,27.5,17.5c0.2,0.5,0.3,1,0.3,1.6c0,2.2-1.8,3.7-3.8,4.2c-0.5,0.1-1.1,0.2-1.8,0.2c-1.9,0-3.7-0.8-4.6-3
		c-1.7-5.9-6-11.8-17.6-11.8c-12.1,0-17.6,6-17.6,12.9c0,7.5,3.6,11.3,15.3,13.6L247.1,166.9z"/>
</g>
<g enable-background="new    ">
	<path fill="none" stroke="#FFFFFF" stroke-width="7" stroke-miterlimit="10" d="M127.1,133.2c0.9-1.6,2.3-2.2,3.7-2.2
		c0.9,0,1.9,0.3,2.8,0.8c1.6,0.8,2.8,2.4,2.8,4.2c0,0.7-0.2,1.6-0.7,2.3l-27.5,41.2v29.6c0,2.8-2.1,4.3-4.9,4.3c-3,0-5-1.5-5-4.3
		v-29.6l-27.7-41.4c-0.4-0.7-0.6-1.4-0.6-2.1c0-1.8,1.4-3.3,3-4.3c0.9-0.4,1.9-0.7,2.8-0.7c1.4,0,2.7,0.6,3.7,2.2l23.7,37
		L127.1,133.2z"/>
	<path fill="none" stroke="#FFFFFF" stroke-width="7" stroke-miterlimit="10" d="M158.9,200.4c0,2.4,1.6,3.3,3.8,3.3h37.2
		c2.7,0,4.2,1.9,4.2,4.5c0,2.5-1.5,4.6-4.2,4.6h-40.2c-7.4,0-10.6-3.2-10.6-11.1V143c0-8,3.2-11.2,10.6-11.2H199
		c2.7,0,4.2,1.9,4.2,4.5s-1.5,4.6-4.2,4.6h-36.6c-2.5,0-3.5,1.1-3.5,3.6V166h35.5c2.6,0,4.1,1.9,4.1,4.5c0,2.4-1.6,4.4-4.1,4.4
		h-35.5V200.4z"/>
	<path fill="none" stroke="#FFFFFF" stroke-width="7" stroke-miterlimit="10" d="M247.1,166.9c16.2,3.4,25.1,8.9,25.1,24
		c0,13.4-10.3,23.5-28.9,23.5c-23.7,0-28.6-12.3-31.1-20.7c-0.1-0.5-0.2-0.9-0.2-1.4c0-2.3,1.8-3.8,4-4.4c0.6-0.1,1.1-0.2,1.8-0.2
		c2,0,4,0.9,4.6,3.1c1.9,7,5.3,14.8,20.5,14.8c11.9,0,19.2-5.7,19.2-14.7c0-8.5-4.7-12.3-17-14.8l-8.3-1.8
		c-15.6-3.2-22.7-9.2-22.7-22.8c0-10.9,8.1-21.5,27.7-21.5c18.7,0,25.2,10,27.5,17.5c0.2,0.5,0.3,1,0.3,1.6c0,2.2-1.8,3.7-3.8,4.2
		c-0.5,0.1-1.1,0.2-1.8,0.2c-1.9,0-3.7-0.8-4.6-3c-1.7-5.9-6-11.8-17.6-11.8c-12.1,0-17.6,6-17.6,12.9c0,7.5,3.6,11.3,15.3,13.6
		L247.1,166.9z"/>
</g>
</svg>
